<svg width="40" height="40" viewBox="0 0 40 40" fill="none" xmlns="http://www.w3.org/2000/svg">
<rect width="40" height="40" rx="8" fill="#3C4758"/>
<g clip-path="url(#clip0_176_380)">
<path d="M30.1437 28.4666C30.0038 28.6338 29.8288 28.7683 29.6311 28.8605C29.4335 28.9526 29.218 29.0003 29 29C28.8285 28.9998 28.6583 28.9707 28.4965 28.9137L21.0012 26.3825C20.9269 26.3574 20.8623 26.3096 20.8165 26.2459C20.7708 26.1821 20.7462 26.1056 20.7462 26.0272V19.25C20.7464 19.1472 20.7255 19.0454 20.6848 18.951C20.644 18.8566 20.5843 18.7716 20.5093 18.7013C20.4343 18.631 20.3456 18.5768 20.2488 18.5422C20.152 18.5075 20.0491 18.4932 19.9465 18.5C19.7537 18.517 19.5743 18.6062 19.4445 18.7498C19.3146 18.8934 19.2438 19.0808 19.2462 19.2744V26.0244C19.2462 26.1028 19.2216 26.1793 19.1759 26.2431C19.1301 26.3068 19.0655 26.3546 18.9912 26.3797L11.4959 28.9109C11.2083 29.012 10.8968 29.023 10.6028 28.9426C10.3089 28.8622 10.0464 28.6941 9.85028 28.4607C9.6542 28.2274 9.53386 27.9399 9.50527 27.6364C9.47668 27.333 9.54121 27.028 9.69027 26.7622L18.6875 11.0122C18.8179 10.7802 19.0078 10.5871 19.2375 10.4528C19.4673 10.3184 19.7286 10.2476 19.9948 10.2476C20.2609 10.2476 20.5223 10.3184 20.752 10.4528C20.9818 10.5871 21.1717 10.7802 21.3021 11.0122L30.3031 26.7594C30.4556 27.0257 30.5222 27.3326 30.4936 27.6382C30.4651 27.9438 30.3429 28.2331 30.1437 28.4666Z" fill="#F8F9FF"/>
</g>
<defs>
<clipPath id="clip0_176_380">
<rect width="24" height="24" fill="white" transform="translate(8 8)"/>
</clipPath>
</defs>
</svg>
