<svg width="122" height="27" viewBox="0 0 122 27" fill="none" xmlns="http://www.w3.org/2000/svg">
<g clip-path="url(#clip0_176_212)">
<path d="M9.75001 15.75V11.25H14.25V15.75H9.75001ZM3.00001 6.46875V15.375C3.00001 15.4745 3.03952 15.5698 3.10985 15.6402C3.18017 15.7105 3.27556 15.75 3.37501 15.75H8.25001V10.8103L3.64033 6.20063C3.58771 6.14795 3.52061 6.11212 3.44756 6.09772C3.37451 6.08331 3.29883 6.09097 3.23016 6.11973C3.16148 6.14849 3.10292 6.19704 3.06194 6.25919C3.02095 6.32135 2.99939 6.3943 3.00001 6.46875ZM20.625 11.25H15.75V16.1897L20.3597 20.7994C20.4123 20.8521 20.4794 20.8879 20.5525 20.9023C20.6255 20.9167 20.7012 20.909 20.7699 20.8803C20.8385 20.8515 20.8971 20.803 20.9381 20.7408C20.9791 20.6786 21.0006 20.6057 21 20.5312V11.625C21 11.5255 20.9605 11.4302 20.8902 11.3598C20.8199 11.2895 20.7245 11.25 20.625 11.25ZM14.25 4.875C14.25 4.77554 14.2105 4.68016 14.1402 4.60984C14.0699 4.53951 13.9745 4.5 13.875 4.5H4.96876C4.89455 4.49994 4.82199 4.5219 4.76027 4.5631C4.69855 4.60431 4.65044 4.66289 4.62203 4.73145C4.59362 4.80001 4.5862 4.87546 4.60069 4.94824C4.61518 5.02102 4.65095 5.08787 4.70345 5.14031L9.31033 9.75H14.25V4.875ZM19.921 9.10969L16.3903 5.57906C16.3379 5.52656 16.271 5.4908 16.1983 5.4763C16.1255 5.46181 16.05 5.46923 15.9815 5.49764C15.9129 5.52605 15.8543 5.57416 15.8131 5.63588C15.7719 5.6976 15.75 5.77016 15.75 5.84438V9.75H19.6556C19.7299 9.75006 19.8024 9.7281 19.8641 9.6869C19.9259 9.64569 19.974 9.5871 20.0024 9.51855C20.0308 9.44999 20.0382 9.37454 20.0237 9.30176C20.0092 9.22898 19.9735 9.16213 19.921 9.10969ZM14.6897 17.25H9.75001V22.125C9.75001 22.2245 9.78952 22.3198 9.85985 22.3902C9.93017 22.4605 10.0256 22.5 10.125 22.5H19.0313C19.1055 22.5001 19.178 22.4781 19.2398 22.4369C19.3015 22.3957 19.3496 22.3371 19.378 22.2685C19.4064 22.2 19.4138 22.1245 19.3993 22.0518C19.3848 21.979 19.3491 21.9121 19.2966 21.8597L14.6897 17.25ZM4.07908 17.8903L7.6097 21.4209C7.66215 21.4734 7.72899 21.5092 7.80177 21.5237C7.87456 21.5382 7.95 21.5308 8.01856 21.5024C8.08712 21.474 8.14571 21.4258 8.18691 21.3641C8.22811 21.3024 8.25007 21.2298 8.25001 21.1556V17.25H4.34439C4.27018 17.2499 4.19762 17.2719 4.13589 17.3131C4.07417 17.3543 4.02606 17.4129 3.99765 17.4815C3.96925 17.55 3.96182 17.6255 3.97631 17.6982C3.99081 17.771 4.02657 17.8379 4.07908 17.8903Z" fill="#141C2A"/>
</g>
<path d="M41.159 9.902C41.015 9.734 40.823 9.572 40.583 9.416C40.343 9.26 40.073 9.122 39.773 9.002C39.473 8.87 39.143 8.768 38.783 8.696C38.435 8.612 38.069 8.57 37.685 8.57C36.701 8.57 35.975 8.756 35.507 9.128C35.039 9.5 34.805 10.01 34.805 10.658C34.805 11.114 34.925 11.474 35.165 11.738C35.405 12.002 35.771 12.218 36.263 12.386C36.767 12.554 37.403 12.728 38.171 12.908C39.059 13.1 39.827 13.334 40.475 13.61C41.123 13.886 41.621 14.258 41.969 14.726C42.317 15.182 42.491 15.794 42.491 16.562C42.491 17.174 42.371 17.708 42.131 18.164C41.903 18.608 41.579 18.98 41.159 19.28C40.739 19.568 40.247 19.784 39.683 19.928C39.119 20.06 38.507 20.126 37.847 20.126C37.199 20.126 36.563 20.06 35.939 19.928C35.327 19.784 34.745 19.58 34.193 19.316C33.641 19.052 33.125 18.722 32.645 18.326L33.419 16.958C33.611 17.162 33.857 17.366 34.157 17.57C34.469 17.762 34.817 17.942 35.201 18.11C35.597 18.278 36.023 18.416 36.479 18.524C36.935 18.62 37.403 18.668 37.883 18.668C38.795 18.668 39.503 18.506 40.007 18.182C40.511 17.846 40.763 17.36 40.763 16.724C40.763 16.244 40.619 15.86 40.331 15.572C40.055 15.284 39.641 15.044 39.089 14.852C38.537 14.66 37.865 14.468 37.073 14.276C36.209 14.06 35.483 13.826 34.895 13.574C34.307 13.31 33.863 12.968 33.563 12.548C33.275 12.128 33.131 11.582 33.131 10.91C33.131 10.094 33.329 9.404 33.725 8.84C34.121 8.276 34.667 7.85 35.363 7.562C36.059 7.274 36.845 7.13 37.721 7.13C38.297 7.13 38.831 7.19 39.323 7.31C39.827 7.43 40.295 7.598 40.727 7.814C41.159 8.03 41.555 8.288 41.915 8.588L41.159 9.902ZM48.5278 20.18C47.8198 20.18 47.1718 20.054 46.5838 19.802C46.0078 19.538 45.5038 19.184 45.0718 18.74C44.6518 18.284 44.3218 17.762 44.0818 17.174C43.8538 16.586 43.7398 15.962 43.7398 15.302C43.7398 14.414 43.9438 13.604 44.3518 12.872C44.7598 12.14 45.3238 11.552 46.0438 11.108C46.7758 10.664 47.6098 10.442 48.5458 10.442C49.4938 10.442 50.3158 10.67 51.0118 11.126C51.7198 11.57 52.2658 12.158 52.6498 12.89C53.0458 13.61 53.2438 14.39 53.2438 15.23C53.2438 15.35 53.2378 15.47 53.2258 15.59C53.2258 15.698 53.2198 15.782 53.2078 15.842H45.4138C45.4618 16.454 45.6298 17 45.9178 17.48C46.2178 17.948 46.6018 18.32 47.0698 18.596C47.5378 18.86 48.0418 18.992 48.5818 18.992C49.1578 18.992 49.6978 18.848 50.2018 18.56C50.7178 18.272 51.0718 17.894 51.2638 17.426L52.6318 17.804C52.4278 18.26 52.1218 18.668 51.7138 19.028C51.3178 19.388 50.8438 19.67 50.2918 19.874C49.7518 20.078 49.1638 20.18 48.5278 20.18ZM45.3598 14.744H51.7678C51.7198 14.132 51.5458 13.592 51.2458 13.124C50.9458 12.656 50.5618 12.29 50.0938 12.026C49.6258 11.762 49.1098 11.63 48.5458 11.63C47.9938 11.63 47.4838 11.762 47.0158 12.026C46.5478 12.29 46.1638 12.656 45.8638 13.124C45.5758 13.592 45.4078 14.132 45.3598 14.744ZM63.1586 20H61.5746V14.744C61.5746 13.748 61.4186 13.022 61.1066 12.566C60.8066 12.098 60.3446 11.864 59.7206 11.864C59.2886 11.864 58.8566 11.972 58.4246 12.188C58.0046 12.404 57.6266 12.698 57.2906 13.07C56.9666 13.43 56.7326 13.85 56.5886 14.33V20H55.0046V10.604H56.4446V12.62C56.6966 12.176 57.0206 11.792 57.4166 11.468C57.8126 11.144 58.2626 10.892 58.7666 10.712C59.2706 10.532 59.7986 10.442 60.3506 10.442C60.8906 10.442 61.3406 10.544 61.7006 10.748C62.0726 10.94 62.3606 11.216 62.5646 11.576C62.7806 11.924 62.9306 12.338 63.0146 12.818C63.1106 13.298 63.1586 13.82 63.1586 14.384V20ZM65.0098 15.32C65.0098 14.432 65.1898 13.622 65.5498 12.89C65.9218 12.146 66.4258 11.552 67.0618 11.108C67.7098 10.664 68.4478 10.442 69.2758 10.442C70.0318 10.442 70.7098 10.64 71.3098 11.036C71.9098 11.432 72.3778 11.912 72.7138 12.476V6.86H74.2978V18.2C74.2978 18.392 74.3338 18.536 74.4058 18.632C74.4898 18.716 74.6218 18.764 74.8018 18.776V20C74.5018 20.048 74.2678 20.072 74.0998 20.072C73.7878 20.072 73.5118 19.964 73.2718 19.748C73.0438 19.532 72.9298 19.292 72.9298 19.028V18.236C72.5578 18.836 72.0598 19.31 71.4358 19.658C70.8118 20.006 70.1638 20.18 69.4918 20.18C68.8438 20.18 68.2438 20.054 67.6918 19.802C67.1518 19.538 66.6778 19.178 66.2698 18.722C65.8738 18.266 65.5618 17.75 65.3338 17.174C65.1178 16.586 65.0098 15.968 65.0098 15.32ZM72.7138 16.706V14.006C72.5698 13.598 72.3358 13.232 72.0118 12.908C71.6878 12.572 71.3218 12.308 70.9138 12.116C70.5178 11.912 70.1218 11.81 69.7258 11.81C69.2578 11.81 68.8318 11.912 68.4478 12.116C68.0758 12.308 67.7518 12.572 67.4758 12.908C67.2118 13.232 67.0078 13.604 66.8638 14.024C66.7198 14.444 66.6478 14.882 66.6478 15.338C66.6478 15.806 66.7258 16.25 66.8818 16.67C67.0498 17.09 67.2778 17.462 67.5658 17.786C67.8658 18.11 68.2078 18.362 68.5918 18.542C68.9878 18.722 69.4138 18.812 69.8698 18.812C70.1578 18.812 70.4518 18.758 70.7518 18.65C71.0638 18.542 71.3578 18.392 71.6338 18.2C71.9098 18.008 72.1438 17.786 72.3358 17.534C72.5278 17.27 72.6538 16.994 72.7138 16.706ZM81.1001 20.18C80.3921 20.18 79.7441 20.054 79.1561 19.802C78.5801 19.538 78.0761 19.184 77.6441 18.74C77.2241 18.284 76.8941 17.762 76.6541 17.174C76.4261 16.586 76.3121 15.962 76.3121 15.302C76.3121 14.414 76.5161 13.604 76.9241 12.872C77.3321 12.14 77.8961 11.552 78.6161 11.108C79.3481 10.664 80.1821 10.442 81.1181 10.442C82.0661 10.442 82.8881 10.67 83.5841 11.126C84.2921 11.57 84.8381 12.158 85.2221 12.89C85.6181 13.61 85.8161 14.39 85.8161 15.23C85.8161 15.35 85.8101 15.47 85.7981 15.59C85.7981 15.698 85.7921 15.782 85.7801 15.842H77.9861C78.0341 16.454 78.2021 17 78.4901 17.48C78.7901 17.948 79.1741 18.32 79.6421 18.596C80.1101 18.86 80.6141 18.992 81.1541 18.992C81.7301 18.992 82.2701 18.848 82.7741 18.56C83.2901 18.272 83.6441 17.894 83.8361 17.426L85.2041 17.804C85.0001 18.26 84.6941 18.668 84.2861 19.028C83.8901 19.388 83.4161 19.67 82.8641 19.874C82.3241 20.078 81.7361 20.18 81.1001 20.18ZM77.9321 14.744H84.3401C84.2921 14.132 84.1181 13.592 83.8181 13.124C83.5181 12.656 83.1341 12.29 82.6661 12.026C82.1981 11.762 81.6821 11.63 81.1181 11.63C80.5661 11.63 80.0561 11.762 79.5881 12.026C79.1201 12.29 78.7361 12.656 78.4361 13.124C78.1481 13.592 77.9801 14.132 77.9321 14.744ZM92.5448 11.99C91.7528 12.002 91.0508 12.206 90.4388 12.602C89.8388 12.986 89.4128 13.52 89.1608 14.204V20H87.5768V10.604H89.0528V12.782C89.3768 12.134 89.8028 11.612 90.3308 11.216C90.8708 10.808 91.4348 10.58 92.0228 10.532C92.1428 10.532 92.2448 10.532 92.3288 10.532C92.4128 10.532 92.4848 10.538 92.5448 10.55V11.99ZM104.194 20.09C103.306 20.09 102.496 19.91 101.764 19.55C101.032 19.178 100.402 18.686 99.8738 18.074C99.3458 17.462 98.9378 16.772 98.6498 16.004C98.3618 15.224 98.2178 14.426 98.2178 13.61C98.2178 12.758 98.3678 11.948 98.6678 11.18C98.9678 10.4 99.3878 9.71 99.9278 9.11C100.48 8.498 101.116 8.018 101.836 7.67C102.568 7.31 103.36 7.13 104.212 7.13C105.112 7.13 105.922 7.316 106.642 7.688C107.374 8.06 108.004 8.558 108.532 9.182C109.06 9.806 109.468 10.502 109.756 11.27C110.044 12.038 110.188 12.818 110.188 13.61C110.188 14.474 110.038 15.296 109.738 16.076C109.438 16.844 109.012 17.534 108.46 18.146C107.92 18.746 107.284 19.22 106.552 19.568C105.832 19.916 105.046 20.09 104.194 20.09ZM99.1358 13.61C99.1358 14.342 99.2618 15.044 99.5138 15.716C99.7658 16.388 100.114 16.988 100.558 17.516C101.014 18.044 101.548 18.464 102.16 18.776C102.784 19.088 103.468 19.244 104.212 19.244C104.968 19.244 105.658 19.082 106.282 18.758C106.906 18.434 107.44 18.002 107.884 17.462C108.328 16.922 108.664 16.322 108.892 15.662C109.132 14.99 109.252 14.306 109.252 13.61C109.252 12.878 109.126 12.176 108.874 11.504C108.634 10.832 108.286 10.232 107.83 9.704C107.374 9.176 106.834 8.756 106.21 8.444C105.598 8.132 104.932 7.976 104.212 7.976C103.444 7.976 102.748 8.138 102.124 8.462C101.5 8.786 100.966 9.218 100.522 9.758C100.09 10.298 99.7478 10.904 99.4958 11.576C99.2558 12.236 99.1358 12.914 99.1358 13.61ZM120.087 9.344C119.883 9.116 119.655 8.918 119.403 8.75C119.151 8.57 118.881 8.426 118.593 8.318C118.305 8.198 117.993 8.108 117.657 8.048C117.321 7.988 116.961 7.958 116.577 7.958C115.329 7.958 114.417 8.198 113.841 8.678C113.277 9.146 112.995 9.782 112.995 10.586C112.995 11.126 113.121 11.558 113.373 11.882C113.637 12.194 114.045 12.446 114.597 12.638C115.149 12.83 115.863 13.016 116.739 13.196C117.663 13.388 118.461 13.616 119.133 13.88C119.805 14.132 120.321 14.48 120.681 14.924C121.053 15.368 121.239 15.968 121.239 16.724C121.239 17.288 121.131 17.786 120.915 18.218C120.699 18.638 120.387 18.986 119.979 19.262C119.571 19.538 119.085 19.748 118.521 19.892C117.969 20.036 117.351 20.108 116.667 20.108C116.007 20.108 115.377 20.036 114.777 19.892C114.177 19.748 113.613 19.538 113.085 19.262C112.557 18.986 112.065 18.632 111.609 18.2L112.095 17.462C112.359 17.75 112.653 18.008 112.977 18.236C113.313 18.452 113.673 18.638 114.057 18.794C114.453 18.95 114.873 19.076 115.317 19.172C115.761 19.256 116.223 19.298 116.703 19.298C117.819 19.298 118.689 19.094 119.313 18.686C119.949 18.266 120.267 17.648 120.267 16.832C120.267 16.268 120.123 15.812 119.835 15.464C119.547 15.116 119.103 14.834 118.503 14.618C117.903 14.39 117.153 14.18 116.253 13.988C115.353 13.796 114.585 13.58 113.949 13.34C113.325 13.1 112.851 12.776 112.527 12.368C112.215 11.96 112.059 11.408 112.059 10.712C112.059 9.944 112.245 9.296 112.617 8.768C113.001 8.228 113.535 7.82 114.219 7.544C114.903 7.268 115.689 7.13 116.577 7.13C117.129 7.13 117.639 7.184 118.107 7.292C118.587 7.4 119.025 7.568 119.421 7.796C119.829 8.012 120.207 8.288 120.555 8.624L120.087 9.344Z" fill="#141C2A"/>
<defs>
<clipPath id="clip0_176_212">
<rect width="24" height="24" fill="white" transform="translate(0 1.5)"/>
</clipPath>
</defs>
</svg>
