<svg width="36" height="36" viewBox="0 0 36 36" fill="none" xmlns="http://www.w3.org/2000/svg">
<circle cx="18" cy="18" r="18" fill="black"/>
<path d="M23.4427 9.92017L19.682 15.5012C19.4219 15.8813 19.922 16.3414 20.2821 16.0213L23.9828 12.8007C24.0828 12.7207 24.2228 12.7807 24.2228 12.9207V22.9826C24.2228 23.1226 24.0428 23.1826 23.9628 23.0826L12.7607 9.68013C12.4006 9.24004 11.8805 9 11.3004 9H10.9004C9.86016 9 9 9.86016 9 10.9204V25.083C9 26.1432 9.86016 27.0033 10.9204 27.0033C11.5805 27.0033 12.2006 26.6633 12.5607 26.0832L16.3214 20.5021C16.5814 20.1221 16.0813 19.662 15.7212 19.982L12.0206 23.1826C11.9205 23.2626 11.7805 23.2026 11.7805 23.0626V13.0207C11.7805 12.8807 11.9605 12.8207 12.0406 12.9207L23.2426 26.3232C23.6027 26.7633 24.1428 27.0033 24.7029 27.0033H25.103C26.1632 27.0033 27.0233 26.1432 27.0233 25.083V10.9204C27.0233 9.86016 26.1632 9 25.103 9C24.4229 9 23.8027 9.34006 23.4427 9.92017Z" fill="white"/>
</svg>
