<svg width="90" height="90" viewBox="0 0 90 90" fill="none" xmlns="http://www.w3.org/2000/svg">
<path d="M83.8461 54.6511C78.5086 76.0665 56.8183 89.1436 35.3635 83.8028C13.9479 78.449 0.8919 56.7586 6.22944 35.3431C11.567 13.9276 33.2442 0.850533 54.6467 6.19131C76.1146 11.4666 89.1706 33.2225 83.8461 54.6511Z" fill="#2775CA"/>
<path d="M21.7482 36.1664C16.9146 49 23.5814 63.5 36.5814 68.1664C37.0814 68.5 37.5814 69.1664 37.5814 69.6664V72C37.5814 72.3332 37.5814 72.5 37.4146 72.6664C37.2482 73.3332 36.5814 73.6664 35.9146 73.3332C26.5814 70.3332 19.4146 63.1664 16.4146 53.8332C11.4146 38 20.0814 21.1664 35.9146 16.1664C36.0814 16 36.4146 16 36.5814 16C37.2482 16.1664 37.5814 16.6664 37.5814 17.3332V19.6664C37.5814 20.5 37.2482 21 36.5814 21.3332C29.7482 23.8332 24.2482 29.1664 21.7482 36.1664Z" fill="white"/>
<path d="M52.7482 16.8332C52.9146 16.1664 53.5814 15.8332 54.2482 16.1664C63.4146 19.1664 70.7482 26.3332 73.7482 35.8332C78.7482 51.6664 70.0814 68.5 54.2482 73.5C54.0814 73.6664 53.7482 73.6664 53.5814 73.6664C52.9146 73.5 52.5814 73 52.5814 72.3332V70C52.5814 69.1664 52.9146 68.6664 53.5814 68.3332C60.4146 65.8332 65.9146 60.5 68.4146 53.5C73.2482 40.6664 66.5814 26.1664 53.5814 21.5C53.0814 21.1664 52.5814 20.5 52.5814 19.8332V17.5C52.5814 17.1664 52.5814 17 52.7482 16.8332Z" fill="white"/>
<path d="M45.5812 42.0001C52.5812 42.8333 56.0812 44.8333 56.0812 50.6665C56.0812 55.1665 52.7481 58.6665 47.7481 59.5001V63.5001C47.5812 64.3333 47.0812 64.8333 46.4144 64.8333H43.9144C43.0812 64.6665 42.5812 64.1665 42.5812 63.5001V59.5001C37.0812 58.6665 34.4144 55.6665 33.748 51.5001V51.3333C33.748 50.6665 34.248 50.1665 34.9144 50.1665H37.748C38.248 50.1665 38.748 50.5001 38.9144 51.1665C39.4144 53.6665 40.9144 55.5001 45.248 55.5001C48.4144 55.5001 50.7481 53.6669 50.7481 51.0001C50.7481 48.3333 49.248 47.3333 44.5812 46.5001C37.5812 45.6665 34.248 43.5001 34.248 38.0001C34.248 33.8333 37.4144 30.5001 42.4144 29.8333V26.0001C42.5812 25.1665 43.0812 24.6665 43.748 24.6665H46.248C47.0812 24.8333 47.5812 25.3333 47.5812 26.0001V30.0001C51.4144 30.3333 54.4144 33.1665 55.0812 36.8333V37.0001C55.0812 37.6665 54.5812 38.1665 53.9144 38.1665H51.2481C50.7481 38.1665 50.248 37.8333 50.0812 37.3333C49.248 34.8333 47.5812 33.8333 44.5812 33.8333C41.248 33.8333 39.5812 35.3329 39.5812 37.6665C39.5812 40.0001 40.5812 41.3333 45.5812 42.0001Z" fill="white"/>
</svg>
