<svg width="36" height="36" viewBox="0 0 36 36" fill="none" xmlns="http://www.w3.org/2000/svg">
<g clip-path="url(#clip0_398_2968)">
<path d="M18 36C27.9411 36 36 27.9411 36 18C36 8.05887 27.9411 0 18 0C8.05887 0 0 8.05887 0 18C0 27.9411 8.05887 36 18 36Z" fill="#26A17B"/>
<path fill-rule="evenodd" clip-rule="evenodd" d="M20.1622 19.5564V19.5541C20.0384 19.5631 19.4005 19.6014 17.9774 19.6014C16.8412 19.6014 16.0413 19.5676 15.76 19.5541V19.5575C11.386 19.3651 8.12128 18.6035 8.12128 17.6922C8.12128 16.7821 11.386 16.0205 15.76 15.8247V18.7992C16.0458 18.8195 16.8648 18.8679 17.9965 18.8679C19.3544 18.8679 20.035 18.8116 20.1622 18.8004V15.827C24.5272 16.0216 27.784 16.7832 27.784 17.6922C27.784 18.6035 24.5272 19.3629 20.1622 19.5564V19.5564ZM20.1622 15.5176V12.8559H26.2529V8.79688H9.66928V12.8559H15.76V15.5165C10.81 15.7437 7.0874 16.7247 7.0874 17.8992C7.0874 19.0737 10.81 20.0536 15.76 20.282V28.8117H20.1622V20.2797C25.1043 20.0525 28.8179 19.0726 28.8179 17.8992C28.8179 16.7259 25.1043 15.746 20.1622 15.5176" fill="white"/>
</g>
<defs>
<clipPath id="clip0_398_2968">
<rect width="36" height="36" fill="white"/>
</clipPath>
</defs>
</svg>
